<?xml version="1.0" encoding="UTF-8"?>
<svg version="1.1" xmlns="http://www.w3.org/2000/svg" width="500" height="500">
<path d="M0 0 C165 0 330 0 500 0 C500 165 500 330 500 500 C335 500 170 500 0 500 C0 335 0 170 0 0 Z " fill="#FEFEFE" transform="translate(0,0)"/>
<path d="M0 0 C0 24.75 0 49.5 0 75 C-6.579375 77.51625 -13.15875 80.0325 -19.9375 82.625 C-45.50341585 92.41126535 -71.0420999 102.26760778 -96.57763672 112.1328125 C-107.35353613 116.29572967 -118.13053102 120.4558089 -128.90766525 124.61552811 C-133.05360884 126.21577345 -137.19943266 127.81632875 -141.34521484 129.41699219 C-156.55880962 135.29015382 -171.77771135 141.14941038 -187 147 C-183.44153125 149.3723125 -179.70223438 150.80357474 -175.7421875 152.3515625 C-174.90401489 152.68236313 -174.06584229 153.01316376 -173.20227051 153.35398865 C-170.42787828 154.44782726 -167.65148332 155.53648126 -164.875 156.625 C-162.9251995 157.39225926 -160.97549379 158.15975944 -159.02587891 158.92749023 C-153.01956368 161.29090123 -147.01029174 163.64672224 -141 166 C-139.64237549 166.53158722 -139.64237549 166.53158722 -138.25732422 167.07391357 C-127.19958897 171.40230731 -116.13608271 175.71584441 -105.07080078 180.02490234 C-97.49340335 182.9758883 -89.91786599 185.93164154 -82.34246826 188.88775635 C-80.66235473 189.54336988 -78.98221981 190.19892858 -77.30206299 190.85443115 C-67.08326707 194.84129201 -56.86660078 198.83355533 -46.65234375 202.83203125 C-45.61604324 203.23768311 -44.57974274 203.64333496 -43.51203918 204.0612793 C-38.47888937 206.03159715 -33.44595276 208.00245723 -28.41333008 209.97412109 C-26.57243131 210.69499444 -24.73152975 211.41586067 -22.890625 212.13671875 C-22.08177353 212.45381302 -21.27292206 212.77090729 -20.43955994 213.09761047 C-13.63708054 215.76069937 -6.81870128 218.37742258 0 221 C0 245.75 0 270.5 0 296 C-3.35241988 295.32951602 -5.79410777 294.80592411 -8.8359375 293.56396484 C-9.55849731 293.27149872 -10.28105713 292.97903259 -11.0255127 292.67770386 C-11.80084351 292.35867096 -12.57617432 292.03963806 -13.375 291.7109375 C-14.61098938 291.20858078 -14.61098938 291.20858078 -15.87194824 290.69607544 C-18.58297966 289.59312715 -21.29145629 288.48404172 -24 287.375 C-25.90411557 286.59916425 -27.80841494 285.82377947 -29.71289062 285.04882812 C-33.60631301 283.46397561 -37.49883372 281.8769395 -41.390625 280.28808594 C-48.6788988 277.31355298 -55.97469656 274.35767052 -63.27099609 271.40289307 C-66.28101575 270.18363729 -69.29052343 268.96312042 -72.30004883 267.74264526 C-83.19795949 263.3233076 -94.09887161 258.91139318 -105 254.5 C-118.27242492 249.12892192 -131.5436783 243.75497385 -144.8125 238.375 C-145.56842438 238.06850525 -146.32434875 237.7620105 -147.10317993 237.44622803 C-153.15574646 234.99211589 -159.20818657 232.53769204 -165.26062012 230.08325195 C-170.56951979 227.9303526 -175.8784717 225.77758213 -181.1875 223.625 C-181.94302155 223.31866638 -182.69854309 223.01233276 -183.47695923 222.69671631 C-196.86336151 217.26933035 -210.2526043 211.84897503 -223.64266968 206.43063354 C-233.27338418 202.53350493 -242.90346056 198.634819 -252.53125 194.73046875 C-253.37768066 194.38722565 -254.22411133 194.04398254 -255.09619141 193.69033813 C-259.09813811 192.06738132 -263.0999455 190.44408206 -267.1015625 188.8203125 C-268.53645667 188.23827715 -269.97135242 187.65624569 -271.40625 187.07421875 C-272.0305188 186.82077194 -272.6547876 186.56732513 -273.29797363 186.30619812 C-278.52507311 184.18632564 -283.76261396 182.09495442 -289 180 C-289 158.88 -289 137.76 -289 116 C-283.18375 113.64875 -277.3675 111.2975 -271.375 108.875 C-254.34314423 101.98528216 -237.3248872 95.06263576 -220.3125 88.125 C-202.4342526 80.83444574 -184.5446989 73.57285966 -166.64068604 66.3458252 C-150.6432415 59.88744747 -134.66231188 53.38914411 -118.6875 46.875 C-100.9930757 39.66008692 -83.29519497 32.45412104 -65.57666016 25.29858398 C-63.90526628 24.62355288 -62.2338796 23.94850395 -60.5625 23.2734375 C-59.73068207 22.93750076 -58.89886414 22.60156403 -58.0418396 22.25544739 C-52.15293899 19.87524865 -46.2696226 17.48156693 -40.38832092 15.08265686 C-36.01374432 13.29893525 -31.63755574 11.51918886 -27.26119995 9.73983765 C-25.14189186 8.87697 -23.02333012 8.01226679 -20.9055481 7.1456604 C-17.97148203 5.94524794 -15.03488911 4.75123222 -12.09765625 3.55859375 C-11.21855591 3.19702179 -10.33945557 2.83544983 -9.43371582 2.46292114 C-8.62680298 2.13669769 -7.81989014 1.81047424 -6.98852539 1.47436523 C-5.93611412 1.04497902 -5.93611412 1.04497902 -4.86244202 0.60691833 C-3 0 -3 0 0 0 Z " fill="#000000" transform="translate(371,111)"/>
</svg>
